<svg xmlns="http://www.w3.org/2000/svg" xmlns:xlink="http://www.w3.org/1999/xlink" id="Capa_1" data-name="Capa 1" viewBox="0 0 1059.39 248.49"><defs><style>.cls-1{fill:url(#Degradado_sin_nombre_20);}.cls-2{fill:url(#Degradado_sin_nombre_4);}.cls-3{fill:url(#Degradado_sin_nombre_4-2);}.cls-4{fill:url(#Degradado_sin_nombre_4-3);}.cls-5{fill:url(#Degradado_sin_nombre_4-4);}.cls-6{fill:url(#Degradado_sin_nombre_4-5);}.cls-7{fill:url(#Degradado_sin_nombre_4-6);}.cls-8{fill:url(#Degradado_sin_nombre_4-7);}.cls-9{fill:url(#Degradado_sin_nombre_4-8);}.cls-10{fill:url(#Degradado_sin_nombre_4-9);}.cls-11{fill:url(#Degradado_sin_nombre_4-10);}.cls-12{fill:#db0a0d;}.cls-13{fill:#ff7d19;}.cls-14{fill:#01a0ce;}.cls-15{fill:#09ac62;}</style><linearGradient id="Degradado_sin_nombre_20" x1="185.72" y1="89.94" x2="185.72" y2="399.55" gradientUnits="userSpaceOnUse"><stop offset="0" stop-color="#1d8054"></stop><stop offset="0.46" stop-color="#118e56"></stop><stop offset="0.5" stop-color="#109958"></stop><stop offset="0.6" stop-color="#0dae5c"></stop><stop offset="0.7" stop-color="#0bbe5f"></stop><stop offset="0.83" stop-color="#09c760"></stop><stop offset="1" stop-color="#09ca61"></stop></linearGradient><linearGradient id="Degradado_sin_nombre_4" x1="171.69" y1="133.02" x2="171.69" y2="376.57" gradientUnits="userSpaceOnUse"><stop offset="0" stop-color="#098549"></stop><stop offset="1" stop-color="#15c364"></stop></linearGradient><linearGradient id="Degradado_sin_nombre_4-2" x1="193.84" y1="133.02" x2="193.84" y2="376.57" xlink:href="#Degradado_sin_nombre_4"></linearGradient><linearGradient id="Degradado_sin_nombre_4-3" x1="230.86" y1="133.02" x2="230.86" y2="376.57" xlink:href="#Degradado_sin_nombre_4"></linearGradient><linearGradient id="Degradado_sin_nombre_4-4" x1="175.71" y1="133.02" x2="175.71" y2="376.57" xlink:href="#Degradado_sin_nombre_4"></linearGradient><linearGradient id="Degradado_sin_nombre_4-5" x1="206.03" y1="133.02" x2="206.03" y2="376.57" xlink:href="#Degradado_sin_nombre_4"></linearGradient><linearGradient id="Degradado_sin_nombre_4-6" x1="76.57" y1="133.02" x2="76.57" y2="376.57" xlink:href="#Degradado_sin_nombre_4"></linearGradient><linearGradient id="Degradado_sin_nombre_4-7" x1="88.61" y1="133.02" x2="88.61" y2="376.57" xlink:href="#Degradado_sin_nombre_4"></linearGradient><linearGradient id="Degradado_sin_nombre_4-8" x1="87.81" y1="133.02" x2="87.81" y2="376.57" xlink:href="#Degradado_sin_nombre_4"></linearGradient><linearGradient id="Degradado_sin_nombre_4-9" x1="77.56" y1="133.02" x2="77.56" y2="376.57" xlink:href="#Degradado_sin_nombre_4"></linearGradient><linearGradient id="Degradado_sin_nombre_4-10" x1="83.86" y1="133.02" x2="83.86" y2="376.57" xlink:href="#Degradado_sin_nombre_4"></linearGradient></defs><title>Logotipo Alaci Color</title><path d="M362.08,203.64h10.29l31,42h-9.48l-8.3-11.28H349.07l-8.31,11.28h-9.48Zm-7.44,23.12h25.29l-12.71-17.23Z" transform="translate(-74.31 -136.47)"></path><path d="M429.93,238h51.31v7.62h-59v-42h7.69Z" transform="translate(-74.31 -136.47)"></path><path d="M528,203.64h10.29l31,42H559.8l-8.3-11.28H514.94l-8.31,11.28h-9.48Zm-7.44,23.12H545.8l-12.71-17.23Z" transform="translate(-74.31 -136.47)"></path><path d="M579,224.65a20.36,20.36,0,0,1,1.67-8.18,21.61,21.61,0,0,1,4.53-6.69,21,21,0,0,1,6.69-4.49,20.51,20.51,0,0,1,8.18-1.65H638v7.63H600.07a12.89,12.89,0,0,0-5.2,1,13.6,13.6,0,0,0-7.13,7.13,13.43,13.43,0,0,0,0,10.41,13.63,13.63,0,0,0,7.13,7.12,12.73,12.73,0,0,0,5.2,1.06H638v7.62H600.07a20.68,20.68,0,0,1-8.18-1.64,21,21,0,0,1-6.69-4.5,21.61,21.61,0,0,1-4.53-6.69A20.36,20.36,0,0,1,579,224.65Z" transform="translate(-74.31 -136.47)"></path><path d="M656.82,203.64h7.63v42h-7.63Z" transform="translate(-74.31 -136.47)"></path><path d="M333,275.06h3.65v21.28h18.69v3.3H333Z" transform="translate(-74.31 -136.47)"></path><path d="M375,275.06h3.83l12.68,24.58h-3.83l-2.88-5.58H368.93l-2.88,5.58h-3.69Zm-4.56,16H383.3l-6.4-12.4Z" transform="translate(-74.31 -136.47)"></path><path d="M393,275.06h23.61v3.3H406.51v21.28h-3.65V278.36H393Z" transform="translate(-74.31 -136.47)"></path><path d="M424.88,275.06h3.65v24.58h-3.65Z" transform="translate(-74.31 -136.47)"></path><path d="M437.48,299.64V275.06h3.38v.14l.21-.14,16.82,19.35V275.06h3.37v24.58h-3.37v-.1l-.21.1L440.86,280.4v19.24Z" transform="translate(-74.31 -136.47)"></path><path d="M496.94,275.06h3.83l12.68,24.58h-3.83l-2.88-5.58H490.83L488,299.64h-3.68Zm-4.56,16H505.2l-6.39-12.4Z" transform="translate(-74.31 -136.47)"></path><path d="M525,275.06l10.75,20.83,10.74-20.83h3.87v24.58h-3.66V282.16l-9,17.48h-3.86l-9-17.48v17.48h-3.65V275.06Z" transform="translate(-74.31 -136.47)"></path><path d="M581.86,275.06v2.74H563.18V286h18.68v2.74H563.18v8.15h18.68v2.73H559.53V275.06Z" transform="translate(-74.31 -136.47)"></path><path d="M590.82,275.06h12q4.5,0,6.82,1.79a6.31,6.31,0,0,1,2.32,5.31,6.9,6.9,0,0,1-1.22,4.14,7.11,7.11,0,0,1-3.28,2.49,5.67,5.67,0,0,1,3.41,2.67,11.15,11.15,0,0,1,1,5.2v.81c0,.28,0,.56,0,.84a4.32,4.32,0,0,0,.11.77,1.16,1.16,0,0,0,.3.56h-3.66a1.63,1.63,0,0,1-.4-1.21c0-.57,0-1.09,0-1.56a15.1,15.1,0,0,0-.38-3.76,4.11,4.11,0,0,0-1.34-2.16,5.48,5.48,0,0,0-2.6-1,29.9,29.9,0,0,0-4.18-.24h-5.23v9.93h-3.65Zm3.65,2.81v9h7.1a17.84,17.84,0,0,0,2.88-.21,6.32,6.32,0,0,0,2.16-.74,3.66,3.66,0,0,0,1.37-1.42,4.81,4.81,0,0,0,.47-2.23,4.44,4.44,0,0,0-.53-2.29,3.56,3.56,0,0,0-1.47-1.35,6.88,6.88,0,0,0-2.22-.63,21.12,21.12,0,0,0-2.73-.16Z" transform="translate(-74.31 -136.47)"></path><path d="M620.88,275.06h3.65v24.58h-3.65Z" transform="translate(-74.31 -136.47)"></path><path d="M661.3,290.65a7.78,7.78,0,0,1-1.24,4.1,10.91,10.91,0,0,1-3.06,3.07,14.72,14.72,0,0,1-4.21,1.93,17.2,17.2,0,0,1-4.69.67,16.52,16.52,0,0,1-5.64-.93,13.18,13.18,0,0,1-4.46-2.65,12.52,12.52,0,0,1-3-4.13,13.86,13.86,0,0,1,0-10.68,12.38,12.38,0,0,1,3-4.12,13,13,0,0,1,4.46-2.66,16.52,16.52,0,0,1,5.64-.93,21.39,21.39,0,0,1,4.74.53,12.81,12.81,0,0,1,4.11,1.67,9.22,9.22,0,0,1,2.9,2.93,8.34,8.34,0,0,1,1.14,4.29h-3.51a5.22,5.22,0,0,0-.92-3,7.1,7.1,0,0,0-2.23-2,10.41,10.41,0,0,0-3-1.16,15.18,15.18,0,0,0-3.23-.37,11.79,11.79,0,0,0-4.27.76,10,10,0,0,0-3.37,2.11,9.36,9.36,0,0,0-2.21,3.21,11,11,0,0,0,0,8.2,9.17,9.17,0,0,0,2.21,3.21,10.25,10.25,0,0,0,3.37,2.09,12.19,12.19,0,0,0,10.56-1.07,8.38,8.38,0,0,0,2.35-2.16,5.17,5.17,0,0,0,1-2.9Z" transform="translate(-74.31 -136.47)"></path><path d="M680.06,275.06h3.83l12.67,24.58h-3.82l-2.88-5.58H674l-2.88,5.58h-3.69Zm-4.57,16h12.82l-6.39-12.4Z" transform="translate(-74.31 -136.47)"></path><path d="M704.11,299.64V275.06h3.38v.14l.21-.14,16.82,19.35V275.06h3.37v24.58h-3.37v-.1l-.21.1L707.49,280.4v19.24Z" transform="translate(-74.31 -136.47)"></path><path d="M763.57,275.06h3.83l12.68,24.58h-3.83l-2.88-5.58H757.46l-2.88,5.58H750.9ZM759,291h12.82l-6.4-12.4Z" transform="translate(-74.31 -136.47)"></path><path d="M787.63,299.64V275.06H791v.14l.21-.14L808,294.41V275.06h3.37v24.58H808v-.1l-.22.1L791,280.4v19.24Z" transform="translate(-74.31 -136.47)"></path><path d="M820.36,275.06h.81v0h9a25.22,25.22,0,0,1,6.32.7,11.58,11.58,0,0,1,4.51,2.18,9,9,0,0,1,2.73,3.81,15.32,15.32,0,0,1,.91,5.6q0,6.53-3.64,9.43t-10.83,2.89h-9.8Zm3.65,2.78v19h5a34.9,34.9,0,0,0,5-.34,9.37,9.37,0,0,0,3.83-1.37,6.54,6.54,0,0,0,2.42-2.9,11.89,11.89,0,0,0,.85-4.91,12.16,12.16,0,0,0-.76-4.67,6.61,6.61,0,0,0-2.21-2.9,9,9,0,0,0-3.62-1.49,26.45,26.45,0,0,0-5-.42Z" transform="translate(-74.31 -136.47)"></path><path d="M896.61,290.65a8.13,8.13,0,0,1-1.2,4.1,10.4,10.4,0,0,1-2.93,3.06,14,14,0,0,1-4.13,1.93,16.92,16.92,0,0,1-4.77.68,17.17,17.17,0,0,1-5.8-.93,13,13,0,0,1-4.46-2.65,11.92,11.92,0,0,1-2.88-4.13,13.49,13.49,0,0,1-1-5.32,14.3,14.3,0,0,1,1-5.45,11.32,11.32,0,0,1,2.81-4.12,12.33,12.33,0,0,1,4.42-2.62,17.6,17.6,0,0,1,5.87-.91,21,21,0,0,1,4.91.56,12.54,12.54,0,0,1,4.06,1.72,8.78,8.78,0,0,1,2.77,2.95,8.63,8.63,0,0,1,1.08,4.22h-3.45a5.36,5.36,0,0,0-.87-3,6.73,6.73,0,0,0-2.16-2,10,10,0,0,0-3-1.14,14.84,14.84,0,0,0-3.3-.37,11.72,11.72,0,0,0-4.29.76,10.24,10.24,0,0,0-3.39,2.09,9.39,9.39,0,0,0-2.21,3.22,10.41,10.41,0,0,0-.79,4.1,10.17,10.17,0,0,0,.79,4.06,9.52,9.52,0,0,0,2.21,3.18,10.06,10.06,0,0,0,3.39,2.08,12.15,12.15,0,0,0,4.29.74,11.92,11.92,0,0,0,3.18-.46,11.56,11.56,0,0,0,3.07-1.33,8.11,8.11,0,0,0,2.32-2.15,5.19,5.19,0,0,0,1-2.88Z" transform="translate(-74.31 -136.47)"></path><path d="M915.47,275.06h3.82L932,299.64h-3.82l-2.88-5.58H909.36l-2.88,5.58h-3.69Zm-4.57,16h12.82l-6.39-12.4Z" transform="translate(-74.31 -136.47)"></path><path d="M939.7,275.06h12q4.49,0,6.81,1.79a6.29,6.29,0,0,1,2.32,5.31,7,7,0,0,1-1.21,4.14,7.19,7.19,0,0,1-3.29,2.49,5.67,5.67,0,0,1,3.41,2.67,11.15,11.15,0,0,1,1,5.2v.81c0,.28,0,.56,0,.84a4.32,4.32,0,0,0,.11.77,1.16,1.16,0,0,0,.3.56h-3.65a1.59,1.59,0,0,1-.41-1.21c0-.57,0-1.09,0-1.56a14.64,14.64,0,0,0-.38-3.76,4.05,4.05,0,0,0-1.34-2.16,5.48,5.48,0,0,0-2.6-1,29.84,29.84,0,0,0-4.17-.24h-5.24v9.93H939.7Zm3.65,2.81v9h7.1a17.84,17.84,0,0,0,2.88-.21,6.32,6.32,0,0,0,2.16-.74,3.66,3.66,0,0,0,1.37-1.42,4.81,4.81,0,0,0,.47-2.23,4.44,4.44,0,0,0-.53-2.29,3.56,3.56,0,0,0-1.47-1.35,6.82,6.82,0,0,0-2.21-.63,21.39,21.39,0,0,0-2.74-.16Z" transform="translate(-74.31 -136.47)"></path><path d="M969.76,275.06h3.65v24.58h-3.65Z" transform="translate(-74.31 -136.47)"></path><path d="M986.2,275.06v0h9.45a11.31,11.31,0,0,1,3.23.45,8.62,8.62,0,0,1,2.63,1.3,5.92,5.92,0,0,1,1.76,2.09,6.2,6.2,0,0,1,.63,2.83,6.27,6.27,0,0,1-.95,3.56,6.46,6.46,0,0,1-2.56,2.23,6.85,6.85,0,0,1,3.4,2.09,5.47,5.47,0,0,1,1.23,3.64,5.59,5.59,0,0,1-.7,2.88,6,6,0,0,1-1.84,1.95,8.37,8.37,0,0,1-2.62,1.12,12.19,12.19,0,0,1-3,.37H986.2v0h-3.65V275.06Zm0,2.85v8.81h8.25a11.48,11.48,0,0,0,2.32-.23,5.52,5.52,0,0,0,1.91-.77,3.88,3.88,0,0,0,1.3-1.4,4.36,4.36,0,0,0,.48-2.13,4.12,4.12,0,0,0-.49-2.09,3.79,3.79,0,0,0-1.32-1.32,5.84,5.84,0,0,0-1.88-.68,12.12,12.12,0,0,0-2.21-.19ZM994.31,289l-4.11,0-4,0v7.76h8.43c.86,0,1.71,0,2.54-.11a7.39,7.39,0,0,0,2.22-.5,3.61,3.61,0,0,0,1.54-1.2,3.55,3.55,0,0,0,.58-2.16,3.15,3.15,0,0,0-.61-2.05,3.68,3.68,0,0,0-1.62-1.14,8.47,8.47,0,0,0-2.3-.51C996.11,289.05,995.22,289,994.31,289Z" transform="translate(-74.31 -136.47)"></path><path d="M1016.93,275.06v0h9.44a11.33,11.33,0,0,1,3.24.45,8.62,8.62,0,0,1,2.63,1.3,6,6,0,0,1,1.76,2.09,6.2,6.2,0,0,1,.63,2.83,6.27,6.27,0,0,1-1,3.56,6.46,6.46,0,0,1-2.56,2.23,6.85,6.85,0,0,1,3.4,2.09,5.47,5.47,0,0,1,1.23,3.64,5.59,5.59,0,0,1-.7,2.88,6,6,0,0,1-1.84,1.95,8.47,8.47,0,0,1-2.62,1.12,12.19,12.19,0,0,1-3,.37h-10.64v0h-3.66V275.06Zm0,2.85v8.81h8.25a11.48,11.48,0,0,0,2.32-.23,5.52,5.52,0,0,0,1.91-.77,3.88,3.88,0,0,0,1.3-1.4,4.36,4.36,0,0,0,.48-2.13,4,4,0,0,0-.5-2.09,3.68,3.68,0,0,0-1.31-1.32,5.84,5.84,0,0,0-1.88-.68,12.12,12.12,0,0,0-2.21-.19ZM1025,289l-4.11,0-4,0v7.76h8.43c.86,0,1.71,0,2.54-.11a7.25,7.25,0,0,0,2.21-.5,3.29,3.29,0,0,0,2.13-3.36,3.21,3.21,0,0,0-.61-2.05,3.68,3.68,0,0,0-1.62-1.14,8.47,8.47,0,0,0-2.3-.51C1026.84,289.05,1026,289,1025,289Z" transform="translate(-74.31 -136.47)"></path><path d="M1066.34,275.06v2.74h-18.68V286h18.68v2.74h-18.68v8.15h18.68v2.73H1044V275.06Z" transform="translate(-74.31 -136.47)"></path><path d="M1085.87,275.06h3.83l12.67,24.58h-3.82l-2.88-5.58h-15.91l-2.88,5.58h-3.69Zm-4.57,16h12.82l-6.39-12.4Z" transform="translate(-74.31 -136.47)"></path><path d="M1109.93,299.64V275.06h3.37v.14l.21-.14,16.82,19.35V275.06h3.37v24.58h-3.37v-.1l-.21.1L1113.3,280.4v19.24Z" transform="translate(-74.31 -136.47)"></path><path d="M344.31,316h3.83l12.68,24.59H357L354.11,335H338.2l-2.88,5.59h-3.68Zm-4.56,16h12.82l-6.4-12.39Z" transform="translate(-74.31 -136.47)"></path><path d="M371,333.24a4.65,4.65,0,0,0,.6,2.44,4.83,4.83,0,0,0,1.6,1.64,7.14,7.14,0,0,0,2.3.91,12.94,12.94,0,0,0,2.77.28,12.64,12.64,0,0,0,2.43-.23,8.19,8.19,0,0,0,2.21-.72,4.38,4.38,0,0,0,1.6-1.31,3.36,3.36,0,0,0,.61-2.06,2.36,2.36,0,0,0-.73-1.81,5.83,5.83,0,0,0-1.92-1.12,16.4,16.4,0,0,0-2.7-.72l-3.13-.6c-1.06-.21-2.11-.46-3.12-.75a10,10,0,0,1-2.71-1.22,6.27,6.27,0,0,1-1.91-2,5.68,5.68,0,0,1-.74-3,6.4,6.4,0,0,1,.84-3.34,7.12,7.12,0,0,1,2.25-2.32,11.12,11.12,0,0,1,3.18-1.37,14.67,14.67,0,0,1,3.63-.45,15.4,15.4,0,0,1,4.08.51,9.21,9.21,0,0,1,3.21,1.54,7.4,7.4,0,0,1,2.13,2.6,9.09,9.09,0,0,1,.84,3.71h-3.48a5,5,0,0,0-1.95-4.15,7.88,7.88,0,0,0-4.83-1.4,10.69,10.69,0,0,0-2.31.26,7.28,7.28,0,0,0-2.08.81,4.5,4.5,0,0,0-1.47,1.37,3.28,3.28,0,0,0-.56,1.91,3,3,0,0,0,.73,2.14,5.77,5.77,0,0,0,1.95,1.34,14,14,0,0,0,2.76.84c1,.21,2.09.42,3.18.62s2.15.44,3.18.72a11.22,11.22,0,0,1,2.75,1.12,5.9,5.9,0,0,1,1.95,1.79,4.87,4.87,0,0,1,.74,2.78,6.2,6.2,0,0,1-.95,3.54,7,7,0,0,1-2.47,2.25,11.28,11.28,0,0,1-3.41,1.18,21.77,21.77,0,0,1-3.78.33,19.75,19.75,0,0,1-4.16-.42,9.7,9.7,0,0,1-3.4-1.39,7,7,0,0,1-2.32-2.51,7.55,7.55,0,0,1-.86-3.76Z" transform="translate(-74.31 -136.47)"></path><path d="M401.45,333.24a4.65,4.65,0,0,0,.6,2.44,4.83,4.83,0,0,0,1.6,1.64,7.14,7.14,0,0,0,2.3.91,12.88,12.88,0,0,0,2.77.28,12.64,12.64,0,0,0,2.43-.23,8.19,8.19,0,0,0,2.21-.72,4.38,4.38,0,0,0,1.6-1.31,3.36,3.36,0,0,0,.61-2.06,2.33,2.33,0,0,0-.74-1.81,5.77,5.77,0,0,0-1.91-1.12,16.68,16.68,0,0,0-2.7-.72l-3.13-.6c-1.07-.21-2.11-.46-3.13-.75a10,10,0,0,1-2.7-1.22,6.27,6.27,0,0,1-1.91-2,5.68,5.68,0,0,1-.74-3,6.4,6.4,0,0,1,.84-3.34,7.12,7.12,0,0,1,2.25-2.32,11.12,11.12,0,0,1,3.18-1.37,14.67,14.67,0,0,1,3.63-.45,15.4,15.4,0,0,1,4.08.51,9.21,9.21,0,0,1,3.21,1.54,7.4,7.4,0,0,1,2.13,2.6,9.09,9.09,0,0,1,.84,3.71h-3.48a5,5,0,0,0-2-4.15,7.88,7.88,0,0,0-4.83-1.4,10.86,10.86,0,0,0-2.32.26,7.33,7.33,0,0,0-2.07.81,4.5,4.5,0,0,0-1.47,1.37,3.28,3.28,0,0,0-.56,1.91,3,3,0,0,0,.73,2.14,5.57,5.57,0,0,0,1.95,1.34,14,14,0,0,0,2.76.84c1,.21,2.09.42,3.18.62s2.15.44,3.18.72a11.22,11.22,0,0,1,2.75,1.12,5.9,5.9,0,0,1,1.95,1.79,4.87,4.87,0,0,1,.74,2.78,6.2,6.2,0,0,1-.95,3.54,7,7,0,0,1-2.47,2.25A11.28,11.28,0,0,1,412.5,341a21.77,21.77,0,0,1-3.78.33,19.75,19.75,0,0,1-4.16-.42,9.83,9.83,0,0,1-3.41-1.39,7.05,7.05,0,0,1-2.31-2.51,7.55,7.55,0,0,1-.86-3.76Z" transform="translate(-74.31 -136.47)"></path><path d="M441.67,341.43a16,16,0,0,1-5.59-.95,13.32,13.32,0,0,1-4.42-2.65,12.45,12.45,0,0,1-2.94-4.11,13.12,13.12,0,0,1-1.07-5.36,13.32,13.32,0,0,1,1-5.34,12,12,0,0,1,2.91-4.11,13.33,13.33,0,0,1,4.45-2.65,16.36,16.36,0,0,1,5.62-.93,15,15,0,0,1,5.37.95,13.36,13.36,0,0,1,4.34,2.65,12,12,0,0,1,2.88,4.11,13.32,13.32,0,0,1,1,5.32,13.16,13.16,0,0,1-1.05,5.32,12.29,12.29,0,0,1-2.9,4.13,13.09,13.09,0,0,1-4.32,2.67A14.86,14.86,0,0,1,441.67,341.43Zm0-2.95a11,11,0,0,0,4.16-.76,9.32,9.32,0,0,0,3.21-2.1,9.44,9.44,0,0,0,2.07-3.21,10.76,10.76,0,0,0,.74-4.07,11.29,11.29,0,0,0-.72-4.08,9.24,9.24,0,0,0-2.05-3.23,9.36,9.36,0,0,0-3.22-2.1,11.21,11.21,0,0,0-4.19-.75,11.78,11.78,0,0,0-4.29.75,9.79,9.79,0,0,0-3.32,2.1,9.66,9.66,0,0,0-2.16,3.21,10.69,10.69,0,0,0-.77,4.1,10.36,10.36,0,0,0,.79,4.09,9.42,9.42,0,0,0,2.2,3.21,10.11,10.11,0,0,0,3.33,2.08A11.35,11.35,0,0,0,441.67,338.48Z" transform="translate(-74.31 -136.47)"></path><path d="M490.8,331.63a7.79,7.79,0,0,1-1.25,4.09,10.62,10.62,0,0,1-3.05,3.07,14.51,14.51,0,0,1-4.22,1.93,16.77,16.77,0,0,1-4.69.67,16.5,16.5,0,0,1-5.63-.93,13,13,0,0,1-4.46-2.65,12.14,12.14,0,0,1-2.95-4.13,13.84,13.84,0,0,1,0-10.67,12.14,12.14,0,0,1,2.95-4.13,13,13,0,0,1,4.46-2.65,16.5,16.5,0,0,1,5.63-.93,21.47,21.47,0,0,1,4.75.52,13.08,13.08,0,0,1,4.1,1.67,9.12,9.12,0,0,1,2.9,2.93,8.21,8.21,0,0,1,1.14,4.29H487a5.22,5.22,0,0,0-.91-3,7.21,7.21,0,0,0-2.23-2,10.34,10.34,0,0,0-3-1.15,14.49,14.49,0,0,0-3.23-.37,11.77,11.77,0,0,0-4.26.75A10.2,10.2,0,0,0,470,321a9.52,9.52,0,0,0-2.22,3.21,11,11,0,0,0,0,8.2,9.28,9.28,0,0,0,2.22,3.22,10.32,10.32,0,0,0,3.37,2.09,11.77,11.77,0,0,0,4.26.75,12.19,12.19,0,0,0,6.29-1.83,8.35,8.35,0,0,0,2.35-2.15,5.15,5.15,0,0,0,1-2.9Z" transform="translate(-74.31 -136.47)"></path><path d="M498.81,316h3.65v24.59h-3.65Z" transform="translate(-74.31 -136.47)"></path><path d="M522.86,316h3.83l12.68,24.59h-3.83L532.66,335H516.75l-2.88,5.59h-3.69Zm-4.56,16h12.82l-6.4-12.39Z" transform="translate(-74.31 -136.47)"></path><path d="M540.84,316h23.6v3.31H554.33v21.28h-3.65V319.34h-9.87Z" transform="translate(-74.31 -136.47)"></path><path d="M572.7,316h3.65v24.59H572.7Z" transform="translate(-74.31 -136.47)"></path><path d="M599.28,341.43a16,16,0,0,1-5.58-.95,13.47,13.47,0,0,1-4.43-2.65,12.43,12.43,0,0,1-2.93-4.11,13.12,13.12,0,0,1-1.07-5.36,13.32,13.32,0,0,1,1-5.34,12,12,0,0,1,2.91-4.11,13.19,13.19,0,0,1,4.44-2.65,16.4,16.4,0,0,1,5.62-.93,15.11,15.11,0,0,1,5.38.95,13.21,13.21,0,0,1,4.33,2.65,12,12,0,0,1,2.88,4.11,13.32,13.32,0,0,1,1,5.32,13.16,13.16,0,0,1-1,5.32,12.43,12.43,0,0,1-2.9,4.13,13.09,13.09,0,0,1-4.32,2.67A14.92,14.92,0,0,1,599.28,341.43Zm0-2.95a10.89,10.89,0,0,0,4.16-.76,9.27,9.27,0,0,0,3.22-2.1,9.44,9.44,0,0,0,2.07-3.21,11,11,0,0,0,.74-4.07,11.29,11.29,0,0,0-.72-4.08,9.11,9.11,0,0,0-5.27-5.33,11.22,11.22,0,0,0-4.2-.75,11.73,11.73,0,0,0-4.28.75,9.7,9.7,0,0,0-3.32,2.1,9.37,9.37,0,0,0-2.16,3.21,10.51,10.51,0,0,0-.77,4.1,10.36,10.36,0,0,0,.79,4.09,9.39,9.39,0,0,0,2.19,3.21,10.26,10.26,0,0,0,3.34,2.08A11.34,11.34,0,0,0,599.28,338.48Z" transform="translate(-74.31 -136.47)"></path><path d="M621.72,340.62V316h3.38v.15l.21-.15,16.82,19.36V316h3.37v24.59h-3.37v-.11l-.21.11L625.1,321.37v19.25Z" transform="translate(-74.31 -136.47)"></path><path d="M683.71,341.43a16,16,0,0,1-5.58-.95,13.37,13.37,0,0,1-4.43-2.65,12.29,12.29,0,0,1-2.93-4.11,13.12,13.12,0,0,1-1.07-5.36,13.31,13.31,0,0,1,1-5.34,12,12,0,0,1,2.92-4.11,13.19,13.19,0,0,1,4.44-2.65,16.36,16.36,0,0,1,5.62-.93,15,15,0,0,1,5.37.95,13.26,13.26,0,0,1,4.34,2.65A12,12,0,0,1,696.3,323a13.32,13.32,0,0,1,1,5.32,13,13,0,0,1-1.06,5.32,12.26,12.26,0,0,1-2.89,4.13,13.09,13.09,0,0,1-4.32,2.67A14.92,14.92,0,0,1,683.71,341.43Zm0-2.95a10.93,10.93,0,0,0,4.16-.76,9.19,9.19,0,0,0,5.29-5.31,11,11,0,0,0,.74-4.07,11.29,11.29,0,0,0-.72-4.08,9.11,9.11,0,0,0-5.27-5.33,11.26,11.26,0,0,0-4.2-.75,11.69,11.69,0,0,0-4.28.75,9.7,9.7,0,0,0-3.32,2.1,9.37,9.37,0,0,0-2.16,3.21,10.51,10.51,0,0,0-.77,4.1,10.36,10.36,0,0,0,.79,4.09,9.26,9.26,0,0,0,2.19,3.21,10.26,10.26,0,0,0,3.34,2.08A11.3,11.3,0,0,0,683.71,338.48Z" transform="translate(-74.31 -136.47)"></path><path d="M706.33,316h22.34v2.74H710v10.05h18.69v2.74H710v9.06h-3.65Z" transform="translate(-74.31 -136.47)"></path><path d="M751.67,316h3.65v24.59h-3.65Z" transform="translate(-74.31 -136.47)"></path><path d="M768.31,316l10.75,20.83L789.81,316h3.86v24.59H790V323.13l-9,17.49h-3.86l-9-17.49v17.49h-3.65V316Z" transform="translate(-74.31 -136.47)"></path><path d="M806.67,316l10.74,20.83L828.16,316H832v24.59h-3.65V323.13l-9,17.49h-3.86l-9-17.49v17.49H802.8V316Z" transform="translate(-74.31 -136.47)"></path><path d="M844.45,316v12.65a17.1,17.1,0,0,0,.39,3.74,8.26,8.26,0,0,0,1.3,3,6.31,6.31,0,0,0,2.44,2,10.25,10.25,0,0,0,7.52.05,6.89,6.89,0,0,0,2.51-1.88,7.75,7.75,0,0,0,1.45-2.83,12.51,12.51,0,0,0,.48-3.56V316h3.65v14.09a13.66,13.66,0,0,1-.75,4.67,9.3,9.3,0,0,1-2.25,3.51,10.33,10.33,0,0,1-3.69,2.23,16.76,16.76,0,0,1-10.17,0,9.54,9.54,0,0,1-3.61-2.26,9.68,9.68,0,0,1-2.18-3.55,13.7,13.7,0,0,1-.74-4.6V316Z" transform="translate(-74.31 -136.47)"></path><path d="M872.8,340.62V316h3.37v.15l.21-.15,16.82,19.36V316h3.37v24.59H893.2v-.11l-.21.11-16.82-19.25v19.25Z" transform="translate(-74.31 -136.47)"></path><path d="M919.33,341.43a16,16,0,0,1-5.59-.95,13.42,13.42,0,0,1-4.42-2.65,12.29,12.29,0,0,1-2.93-4.11,13,13,0,0,1-1.07-5.36,13.31,13.31,0,0,1,1-5.34,11.91,11.91,0,0,1,2.92-4.11,13.19,13.19,0,0,1,4.44-2.65,16.36,16.36,0,0,1,5.62-.93,15,15,0,0,1,5.37.95,13.36,13.36,0,0,1,4.34,2.65,12,12,0,0,1,2.88,4.11,13.32,13.32,0,0,1,1,5.32,13,13,0,0,1-1.06,5.32,12.29,12.29,0,0,1-2.9,4.13,12.94,12.94,0,0,1-4.31,2.67A15,15,0,0,1,919.33,341.43Zm0-2.95a10.93,10.93,0,0,0,4.16-.76,9.32,9.32,0,0,0,3.21-2.1,9.62,9.62,0,0,0,2.08-3.21,11,11,0,0,0,.73-4.07,11.29,11.29,0,0,0-.72-4.08,9.06,9.06,0,0,0-5.26-5.33,11.3,11.3,0,0,0-4.2-.75,11.78,11.78,0,0,0-4.29.75,9.75,9.75,0,0,0-3.31,2.1,9.37,9.37,0,0,0-2.16,3.21,11.07,11.07,0,0,0,0,8.19,9.42,9.42,0,0,0,2.2,3.21,10.21,10.21,0,0,0,3.33,2.08A11.39,11.39,0,0,0,919.33,338.48Z" transform="translate(-74.31 -136.47)"></path><path d="M942,316h3.65v21.29h18.68v3.3H942Z" transform="translate(-74.31 -136.47)"></path><path d="M984.65,341.43a16,16,0,0,1-5.58-.95,13.47,13.47,0,0,1-4.43-2.65,12.43,12.43,0,0,1-2.93-4.11,13.12,13.12,0,0,1-1.07-5.36,13.32,13.32,0,0,1,1-5.34,12,12,0,0,1,2.91-4.11,13.19,13.19,0,0,1,4.44-2.65,16.4,16.4,0,0,1,5.62-.93,15.11,15.11,0,0,1,5.38.95,13.21,13.21,0,0,1,4.33,2.65,12,12,0,0,1,2.88,4.11,13.32,13.32,0,0,1,1,5.32,13.16,13.16,0,0,1-1,5.32,12.43,12.43,0,0,1-2.9,4.13,13.09,13.09,0,0,1-4.32,2.67A14.92,14.92,0,0,1,984.65,341.43Zm0-2.95a10.89,10.89,0,0,0,4.16-.76,9.27,9.27,0,0,0,3.22-2.1,9.44,9.44,0,0,0,2.07-3.21,11,11,0,0,0,.74-4.07,11.29,11.29,0,0,0-.72-4.08,9.11,9.11,0,0,0-5.27-5.33,11.22,11.22,0,0,0-4.2-.75,11.73,11.73,0,0,0-4.28.75,9.7,9.7,0,0,0-3.32,2.1,9.37,9.37,0,0,0-2.16,3.21,10.51,10.51,0,0,0-.77,4.1,10.36,10.36,0,0,0,.79,4.09,9.39,9.39,0,0,0,2.19,3.21,10.26,10.26,0,0,0,3.34,2.08A11.34,11.34,0,0,0,984.65,338.48Z" transform="translate(-74.31 -136.47)"></path><path d="M1006.74,328.36a13.32,13.32,0,0,1,1-5.34,12.21,12.21,0,0,1,2.88-4.11,12.81,12.81,0,0,1,4.42-2.65,16.8,16.8,0,0,1,5.71-.93,19,19,0,0,1,4.8.62,14.13,14.13,0,0,1,4.26,1.86,10.26,10.26,0,0,1,3.08,3.11,8.28,8.28,0,0,1,1.21,4.35h-3.48a5.78,5.78,0,0,0-.91-3.12,7.5,7.5,0,0,0-2.29-2.23,10.42,10.42,0,0,0-3.14-1.34,14.47,14.47,0,0,0-3.53-.44,11.67,11.67,0,0,0-4.3.77,10.17,10.17,0,0,0-3.34,2.13,9.65,9.65,0,0,0-2.16,3.23,11.22,11.22,0,0,0,0,8.17,10,10,0,0,0,2.16,3.23,9.68,9.68,0,0,0,3.34,2.12,11.67,11.67,0,0,0,4.3.76,9.84,9.84,0,0,0,3.32-.55,10,10,0,0,0,2.79-1.47,9.59,9.59,0,0,0,2.11-2.2,9.21,9.21,0,0,0,1.3-2.74h-9v-2.14h12.82v11.17h-2.46v-4.11a12.22,12.22,0,0,1-4.69,3.6,15.06,15.06,0,0,1-6.2,1.28,16.25,16.25,0,0,1-5.58-.93,13,13,0,0,1-4.44-2.65,12.31,12.31,0,0,1-3-4.13A13,13,0,0,1,1006.74,328.36Z" transform="translate(-74.31 -136.47)"></path><path d="M1039.23,316h4.28l8.22,11.14L1060,316h4.28l-10.57,13.74v10.85h-3.82V329.77h0Z" transform="translate(-74.31 -136.47)"></path><rect x="243.6" y="67.18" width="3.88" height="137.78"></rect><path class="cls-1" d="M249.14,320.44c.87-1.42,2.47-2.74.63-4.77-.77,2.38-2.44,4.05-2.64,6.63a5,5,0,0,1-4.19,4.89,13.35,13.35,0,0,0-2.22.63,5.11,5.11,0,0,1-4.84-.7,7.66,7.66,0,0,0-2.75-1,9.28,9.28,0,0,0,3.23,3.88,20.39,20.39,0,0,1,4.22,4.23c.27.34-.24,1.84-.79,2.2-3.47,2.29-6.84,5-12.11,4,1.91,2,1,3.37,0,4.8a2.41,2.41,0,0,1-3.16.84,15.53,15.53,0,0,0-2.37-.47l-.19.43c.86,1.55,1.73,3.1,2.58,4.66s1.25,3-.24,4.56a23.61,23.61,0,0,0-2.7,4.12c-.56.92-.45,1.59.73,2,1.93.64,3.81,1.41,5.9,2.2-.61.68-1.1,1.25-1.62,1.79a3.32,3.32,0,0,0-1.3,2.84c.07.68-.69,1.56-1.27,2.16-1.14,1.19-1.25,2.11-.14,3.36l.33.37c1.86,2.13,1.68,2.77-1.18,3.83.15,1.26.31,2.57.48,3.88l-.26.07c-.24-.64-.45-1.3-.73-1.92a5,5,0,0,0-4.19-2.55,3.78,3.78,0,0,1-2.53-1.63,12.31,12.31,0,0,0-6.23-5.57,2.89,2.89,0,0,1-1.21-1.61c-.76-2-1.78-3.61-4.09-4.11-.6-.13-1.06-.92-1.58-1.4a12.92,12.92,0,0,1,2.15-1.18c.69-.24,2,0,2.12-.32a8.26,8.26,0,0,0,.32-3.32c-.2-1.83-.7-3.62-.92-5.44-.14-1.18-.42-2.13-1.65-2.55a14.53,14.53,0,0,0-1.7-.62c-1.22-.25-1.68-.78-1.54-2.15a5.91,5.91,0,0,0-.82-2.93c-1-2.08-2.13-4.11-2-6.53a2.75,2.75,0,0,1,.15-1.13c1.3-2.19.84-4.33.25-6.66-.53-2.08-.23-4.36-.5-6.53a18.89,18.89,0,0,0-1.12-4.36c-.76-2-1.65-3.85-.56-6.09a9.27,9.27,0,0,0,.57-3.71c.09-3.17-.12-6.36.16-9.52a31.21,31.21,0,0,0-1.25-10.23,11.42,11.42,0,0,1-.25-3.69c.21-2.37-1.53-4.66-3.64-5.78-3.67-1.94-7.1-4.31-10.63-6.5-.47-2.66-3.18-3.49-4.46-5.48a1.83,1.83,0,0,1-.38-.73,11.06,11.06,0,0,0-2.89-6.31,19.23,19.23,0,0,1-1.52-1.88c-1.44-2.12-2.83-4.27-4.23-6.42-.8-1.24-1.58-2.48-2.34-3.74-1.14-1.91-2.3-3.81-3.36-5.77a2.07,2.07,0,0,1,.85-3c2-1,1.62-3.09,2.14-4.73.1-.33-.53-1-1-1.34a32.16,32.16,0,0,0-2.86-1.71l3.37-3.73c.29-.32.86-.67.82-.95-.3-2.72,2-2.72,3.55-3.49.44-.21,1-.24,1.42-.44,1.27-.54,2.16-1.46,1.91-2.92a13.24,13.24,0,0,1,.72-6.29,6.37,6.37,0,0,0-.37-3.83,25.76,25.76,0,0,0-2.75-5.38c-1-1.54-2.72-1.39-3.86.08a10.07,10.07,0,0,0-.71,1.12c-1.38,2.33-2.86,2.53-4.86.69a2.51,2.51,0,0,0-1.07-.72,5.18,5.18,0,0,1-4.49-3.36,1.16,1.16,0,0,0-.76-.58c-2.3-.49-3.11-2.43-4-4.2-.77-1.46-1.44-3-2.08-4.49-.4-1-.83-1.23-2-1.05a11.51,11.51,0,0,1-6.21-.56,14,14,0,0,1-5.16-3.72,63.37,63.37,0,0,0-7.35-6.07,1.89,1.89,0,0,0-1.83.23c-2,2.38-4,1.73-6.71,1.25-3.47-.62-6.39-2.22-9.48-3.53a4.46,4.46,0,0,1-2-1.58,9.89,9.89,0,0,0-4.56-3.63,2.5,2.5,0,0,1-.69-4.34c1.6-1.54,1.94-5.74.35-7.64a14.42,14.42,0,0,0-3.66-2.9c-1.54-.93-3-1.77-3.37-3.76a11.05,11.05,0,0,0-1.48-2.9c-1.33-2.4-2.75-4.76-4-7.21a6.33,6.33,0,0,1-.2-2.6c0-1.87-.38-3.6-2.07-4.75-3,1.54-3.45,4.4-1.46,7.63a11.3,11.3,0,0,1,1.18,3c.76,2.8,1.26,5.69,2.21,8.41.42,1.2,1.65,2.13,2.59,3.11a3.74,3.74,0,0,1,.88,4.58l-6.91-6.51c-.33-2.34-.83-5.93-1.36-9.52a1.66,1.66,0,0,0-.53-1c-1.51-1.09-1.73-2.73-1.91-4.36-.2-1.91-.25-3.84-.45-5.75-.16-1.51.38-2.2,1.89-2.29,1.09-.06,2.18-.19,3.27-.24a1.35,1.35,0,0,1,.92.2c2.68,2.43,6.08,3.15,9.43,4a30.85,30.85,0,0,1,3.15.94c1.5.56,2.26.15,2.89-1.38a4,4,0,0,1,2.31-2,2.48,2.48,0,0,1,2.12,1.17,18,18,0,0,1,.84,4.3,7.21,7.21,0,0,1-.1,1.59c.79.11,1.58,0,2,.3,1.61,1.4,3.09,1,4.62,0a8.27,8.27,0,0,1,1-.55c1.1,1,2.16,1.92,3.11,2.93.24.25.21.84.19,1.26-.39,6.17.48,5.94,5.83,7.15a2.56,2.56,0,0,1,.46.19,39.51,39.51,0,0,1-1.25,6.25,16.6,16.6,0,0,0-1.26,6c0,3.18,1.19,5.57,4.1,6.88,3.67,1.65,7.5,2.28,11.26.5a5.89,5.89,0,0,0,2.3-3c.56-1.29,1-2.28,2.6-2.59,1.06-.2,2-1.15,3-1.66a3.6,3.6,0,0,1,4.42.37c.88.79.91,1.46,0,2.16-.51.41-1.13.66-1.66,1a3.58,3.58,0,0,0-1,1c-.68,1.23-1.22,2.54-2,3.72-.46.74-.91,1.31-.44,2.22a2.38,2.38,0,0,1-.81,3.18c-1,.83-.66,1.37.34,2,2.37,1.39,4.83.74,7.21.28,1.91-.38,3.21.51,4.48,1.52.92.74.47,2.51-.5,3.88-1.51,2.14-2.87,4.57-1.29,7.13a31.15,31.15,0,0,0,4.67,5.48,3.82,3.82,0,0,0,4.58,0,3.33,3.33,0,0,1,3.52-.71c1.93.68,4,1.18,5,3.43.09.23,1.14.34,1.51.12a14.41,14.41,0,0,0,2.71-2.09,2.45,2.45,0,0,0,.77-1.61,1.94,1.94,0,0,1,1.22-2.07c2-1,3.62-2.63,6.14-2.5.63,0,1.41-1.22,2-2,1.39-1.9,1.36-1.93,3.58-.29a11.42,11.42,0,0,0-2.22,1.32,6.26,6.26,0,0,0-1.3,2.07,5.45,5.45,0,0,0-.63,2.46,5.74,5.74,0,0,0,1.11,3.13c.83.87,2.37-.09,2.29-1.34a16.82,16.82,0,0,0-.43-2.42c-.37-1.79.13-2.34,1.92-2.6A14.41,14.41,0,0,1,201,199c.31.15.9-.27,1.59-.51a9.42,9.42,0,0,1,1.8,1.51c1,1.28,2.12,1,3.24.5,3.14-1.46,5.58-1,7.18,2a4.93,4.93,0,0,0,4.06,2.82c.71.1,1.36.81,2,1.29.93.71,1.83,1.47,2.74,2.2a12.13,12.13,0,0,1,1.73,1.44,8.72,8.72,0,0,0,7.85,3.29,7.66,7.66,0,0,1,6,2.54c1.65,1.66,3.35,3.28,4.08,5.66.18.57,1,1,1.54,1.42,1.89,1.47,2.43,3.18,1,5.07a22.23,22.23,0,0,1-4.29,3.91,19.53,19.53,0,0,1-3.05,1.67l.12.61c.65.09,1.29.22,1.94.27,1.14.08,2.28.12,3.42.17a3.62,3.62,0,0,1,2.9,1.57c.78,1,1.81,1.22,2.67-.06s1.84-2.59,2.67-3.94c.49-.8.92-1.13,1.82-.56,1.69,1.06,3.93,1.07,5.23,2.94.81,1.17,1.68,2.18.7,3.67-.16.25,0,.7,0,1.55.65-.72,1.06-1.09,1.38-1.53,1-1.35,2.14-2.33,4-1.88a3,3,0,0,0,1.63,0c1.21-.45,1.93.23,2.78.87a3.81,3.81,0,0,0,2.14.89,6.09,6.09,0,0,1,5.07,2.26c.29.34.66.6.92,1a6.21,6.21,0,0,0,6,2.68,4.11,4.11,0,0,1,4.77,3.13c.49,1.74.75,3.56-.54,5.17-1.95,2.43-3.35,5.31-6.14,7-.5.3-.73,1.18-.91,1.84-.77,2.81-1.62,3.51-4.52,3.57a5.63,5.63,0,0,0,0,6.19,6.13,6.13,0,0,1,.44,4.3c-.27,1.46-.65,2.9-.83,4.37-.22,1.78-.36,3.58-.42,5.38,0,1.39-.23,2.56-1.62,3.34a4.81,4.81,0,0,0-1.6,1.85c-1.41,2.53-3.34,3.83-6.32,3a1.07,1.07,0,0,0-.79.09c-2.88,1.75-6.22,2.92-7.88,6.21-.17.33-.48.75-.78.81-2.26.4-2,2.25-2,3.7,0,.74.82,1.58,1.47,2.14a1.84,1.84,0,0,1,.61,2.55c-1.06,2-1.91,4-4,5.31-.71.45-.86,1.87-1.19,2.87a18.78,18.78,0,0,1-.73,2.65c-.25.48-1,.72-1.51,1.07Z" transform="translate(-74.31 -136.47)"></path><path class="cls-2" d="M184.8,174c-2.14-.32-3.94-.66-5.74-.84a8.12,8.12,0,0,0-2.25.36c-1.54.31-2-.16-1.78-1.72a4.45,4.45,0,0,0,.23-1.61,2.49,2.49,0,0,0-1-1.57c-2.31-.92-4.55-2.2-7.22-1.84a1.67,1.67,0,0,1-1.28-.71c-1.65-2.43-3.19-2.41-4.67.12-.3.52-.61,1-1,1.66l-1.48-1.43c1.26-2.06,5.21-3.51,7.92-2.64,3.83,1.22,7.57,2.73,11.35,4.11a10.81,10.81,0,0,1,2.61,1,40.07,40.07,0,0,1,4.09,3.4C184.79,172.49,184.69,173.08,184.8,174Z" transform="translate(-74.31 -136.47)"></path><path class="cls-3" d="M186,178.5c1.69-.82,2-2.08,1.82-3.79-.19-1.41,1-2.21,2.49-1.94s3.58,0,4.5.94c1.79,1.74,3.69,1.81,5.83,1.79.37,0,.75.37,1.12.57a7.56,7.56,0,0,1-1,.65,10.6,10.6,0,0,0-2.49,1.09,3.31,3.31,0,0,1-4.37.32,3.22,3.22,0,0,0-3.65,0c-1.16.6-2.65.54-4,.78Z" transform="translate(-74.31 -136.47)"></path><path class="cls-4" d="M236.48,384c-2.75,1.38-5.07.88-7.31.66-.64-.07-1.2-1.17-1.74-1.84s-.66-1.28-1.17-1.65c-1-.69-1.32-1.5-.72-2.49a1.71,1.71,0,0,1,2.6-.43c1,.63,1.67,1.58,2.58,2.28a39.48,39.48,0,0,0,3.34,2.22C234.71,383.19,235.43,383.5,236.48,384Z" transform="translate(-74.31 -136.47)"></path><path class="cls-5" d="M172.7,177.21c1.22-.84,4.65-1.05,5.49-.16a2.81,2.81,0,0,1,.49,2.19c-.06.39-1,.91-1.52.88C174.24,179.92,173.56,179.43,172.7,177.21Z" transform="translate(-74.31 -136.47)"></path><path class="cls-6" d="M209.28,176.69c-1.81,2.43-4.09,2.31-6.5,2,0-1.49.54-2.3,2.21-2.15C206.41,176.66,207.85,176.64,209.28,176.69Z" transform="translate(-74.31 -136.47)"></path><path class="cls-7" d="M78.82,177.09c-1,.86-1.77,2-2.15,1.84a4.28,4.28,0,0,1-2.3-1.92c-.39-.77,1.28-2.3,2.24-2C77.35,175.27,77.88,176.17,78.82,177.09Z" transform="translate(-74.31 -136.47)"></path><path class="cls-8" d="M91,177.59c0,1.23-.24,2.33-1.52,2.67a2.57,2.57,0,0,1-3.3-1.34C87.38,177,89.21,177.47,91,177.59Z" transform="translate(-74.31 -136.47)"></path><path class="cls-9" d="M86.49,172.07c1.2.54,3,0,2.75,2.09a2,2,0,0,1-1.45,1.25C86.34,175.5,86.17,175,86.49,172.07Z" transform="translate(-74.31 -136.47)"></path><path class="cls-10" d="M79.23,157.27a7.28,7.28,0,0,1-1.47,2c-.39.26-1.2-.11-1.87-.21C76.43,157.46,77,156.46,79.23,157.27Z" transform="translate(-74.31 -136.47)"></path><path class="cls-11" d="M83.92,177.71c-.61-1-1.14-1.49-1.21-2.06s.5-.93.78-1.4A13.86,13.86,0,0,1,85,176.18C85.1,176.33,84.54,176.87,83.92,177.71Z" transform="translate(-74.31 -136.47)"></path><rect class="cls-12" x="128.52" y="200.91" width="15.94" height="35.44" rx="2.34" transform="translate(-186.88 15.83) rotate(-43.11)"></rect><circle class="cls-12" cx="41.44" cy="60.96" r="7.11"></circle><rect class="cls-12" x="116.96" y="216.47" width="15.94" height="35.44" rx="2.34" transform="translate(-214.8 100.75) rotate(-62.58)"></rect><circle class="cls-12" cx="24" cy="84.64" r="7.11"></circle><rect class="cls-13" x="111.23" y="234.38" width="15.94" height="35.44" rx="2.34" transform="translate(-219.75 203.58) rotate(-83.08)"></rect><circle class="cls-13" cx="15.37" cy="112.71" r="7.11"></circle><rect class="cls-13" x="111.92" y="253.85" width="15.94" height="35.44" rx="2.34" transform="translate(-191.9 313.23) rotate(-103.05)"></rect><circle class="cls-13" cx="16.84" cy="142.43" r="7.11"></circle><rect class="cls-14" x="118.81" y="270.86" width="15.94" height="35.44" rx="2.34" transform="translate(-126.28 411.72) rotate(-121.73)"></rect><circle class="cls-14" cx="27.6" cy="168.25" r="7.11"></circle><rect class="cls-14" x="132.24" y="285.52" width="15.94" height="35.44" rx="2.34" transform="translate(-14.48 491.03) rotate(-141.27)"></rect><circle class="cls-14" cx="47.85" cy="190.3" r="7.11"></circle><rect class="cls-15" x="149.19" y="293.97" width="15.94" height="35.44" rx="2.34" transform="translate(140.45 519.49) rotate(-162.74)"></rect><circle class="cls-15" cx="74.67" cy="203.72" r="7.11"></circle><rect class="cls-15" x="167.46" y="296.58" width="15.94" height="35.44" rx="2.34" transform="translate(289.02 484.83) rotate(177.7)"></rect><circle class="cls-15" cx="102.95" cy="207.42" r="7.11"></circle></svg>